<svg width="90" height="90" viewBox="0 0 90 90" fill="none" xmlns="http://www.w3.org/2000/svg">
<path d="M33.7496 60.6369L20.7371 47.6244C20.0359 46.9232 19.0849 46.5293 18.0933 46.5293C17.1017 46.5293 16.1507 46.9232 15.4496 47.6244C14.7484 48.3255 14.3545 49.2765 14.3545 50.2681C14.3545 50.7591 14.4512 51.2453 14.6391 51.6989C14.827 52.1525 15.1024 52.5647 15.4496 52.9119L31.1246 68.5869C32.5871 70.0494 34.9496 70.0494 36.4121 68.5869L76.0871 28.9119C76.7882 28.2107 77.1821 27.2597 77.1821 26.2681C77.1821 25.2765 76.7882 24.3255 76.0871 23.6244C75.3859 22.9232 74.4349 22.5293 73.4433 22.5293C72.4517 22.5293 71.5007 22.9232 70.7996 23.6244L33.7496 60.6369Z" fill="#36C2BA"/>
</svg>
